<svg xmlns="http://www.w3.org/2000/svg" xmlns:xlink="http://www.w3.org/1999/xlink" version="1.1" width="1000" height="142" xml:space="preserve" stroke="black" fill="none" stroke-width="20">
<g id="letterO" stroke-width="1" fill="black">
    <circle cx="72" cy="72" r="60" fill="none" stroke-width="20" />
    <circle cx="72" cy="32" r="5" />
    <circle cx="72" cy="110" r="5" />
    <circle cx="32" cy="72" r="5" />
    <circle cx="110" cy="72" r="5" />
    <circle cx="44" cy="44" r="5" />
    <circle cx="100" cy="44" r="5" />
    <circle cx="44" cy="100" r="5" />
    <circle cx="100" cy="100" r="5" />
    <line x1="72" y1="72" x2="60" y2="45" stroke-width="7" stroke-linecap="round" />
</g>
<path id="letterC" d="M 235 30 A 60 60 0 1 0 235 114"/>
<g id="letterT">
    <line x1="256" x2="384" y1="20" y2="20" />
    <path d="m 319,20 c 1.25,68 -10,105 52,105"/>
</g>
<line id="letterI" x1="416" x2="416" y1="10" y2="136"/>
<path id="letterM" d="M 456 136
                    L 456 35
                    L 500 85"/>
<g id="letter">

</g>
</svg>